<svg xmlns="http://www.w3.org/2000/svg" viewBox="0 0 595 580">
  <g stroke="#000" stroke-miterlimit="10">
    <circle cx="303.345" cy="290.236" r="281.006" fill="#BFEEFF" stroke-width="15"/>
    <path fill="red" stroke-width="14" d="M482 455c-40-62-99-113-179-113s-138 51-178 113l-21 33c42 42 97 73 159 81l39 2 35-2c64-9 123-37 166-81l-21-33z"/>
  </g>
  <g fill-rule="evenodd" clip-rule="evenodd">
    <path d="M158 218l1-17c2-13 13-22 27-22 4 0 6-2 8-6 18-34 39-66 67-92 11-12 24-21 39-28 28-12 54-9 78 11 22 17 36 39 48 63 7 13 12 27 17 41 1 3 2 4 6 5 23 4 39 24 39 47-1 31-35 53-64 42l-12-3H190c-19 0-32-12-32-32v-9zm197-91l1-1-14-5c-4-1-7-5-4-7 1-2 5-2 7-2 15 3 26 12 36 23l32 40c1 2 4 3 5 3l17-6-14-35c-11-24-25-47-46-65-20-16-43-22-68-12-23 10-41 26-57 45v1l5 1h28c3 0 7 0 7 4 0 5-4 5-7 5h-38l-4 1-12 15h7l28 1c2 0 4 2 5 4l-4 5h-38l-5 1-9 14 4 1h30c3 0 7 0 7 5 0 4-3 4-7 4h-32c-8 0-10 2-12 11h201l-20-26c-6-9-14-14-25-15h-9c-8 0-16 1-23 7-1 2-5 2-6 1-3-2-2-5 0-7 4-5 10-8 17-9l17-2zm51 61H186c-11 0-17 5-19 17v25c1 14 8 20 22 20h218c-16-21-16-41-1-62zm72 31c0-23-15-37-40-37-18 0-34 17-34 37 0 21 16 37 37 37s37-16 37-37zM305 298c8-10 19-9 30-5l32 13 26 6c19 4 35-3 48-15l3-2c2-1 4-3 6-2 1 1 3 4 2 5a96 96 0 0 1-38 73l-2 6c-2 16-3 32-8 47-8 26-23 46-47 59l-25 13-13 8c-6 4-9 9-11 15 0 2-3 4-5 6-1-2-4-3-4-5-2-7-6-12-12-15l-25-12a109 109 0 0 1-72-97l-2-28c0-2-2-4-3-5a88 88 0 0 1-29-44c-2-7-3-14 0-21 1-2 2-5 4-5s5 1 6 3c8 13 19 19 34 17l18-3 45-16c8-3 17-5 25-2 6 1 11 4 17 6zm-108 75l4 31c5 34 22 61 55 76 16 8 34 12 47 27 7-10 16-15 26-20l14-7c31-14 50-37 56-71l3-30-5 2c-17 6-33 5-49-2-5-2-9-2-13 1-21 14-42 15-62-2l-6-1c-15 7-31 8-48 4l-22-8zm-32-63l-2 1 3 12c9 22 26 37 48 47 22 8 42 6 61-7 10-7 19-15 26-25 4-5 6-5 11 0 8 9 16 18 25 25 20 15 42 18 64 5 19-10 31-26 38-47 2-3 2-7 4-13l-6 4c-11 7-23 10-36 10-16 0-30-5-44-10l-29-11c-10-3-14-1-19 8-2 4-6 5-9 1-6-9-15-12-25-9l-36 11c-10 4-21 8-31 10-16 3-31 0-43-12zm143 38l-14 12-13 11c11 14 34 14 48 2l-21-25z"/>
    <path fill="red" d="M355 127l-17 2c-7 1-13 4-17 9-2 2-3 5 0 7 1 1 5 1 6-1 7-6 15-7 23-7h9c11 1 19 6 25 15l20 26H203c2-9 4-11 12-11h32c4 0 7 0 7-4 0-5-4-5-7-5h-30l-4-1 9-14 5-1h38l4-5c-1-2-3-4-5-4l-28-1h-7l12-15 4-1h38c3 0 7 0 7-5 0-4-4-4-7-4h-28l-5-1v-1c16-19 34-35 57-45 25-10 48-4 68 12 21 18 35 41 46 65l14 35-17 6c-1 0-4-1-5-3l-32-40a68 68 0 0 0-36-23c-2 0-6 0-7 2-3 2 0 6 4 7l14 5-1 1z"/>
    <path fill="#FFF" d="M406 188c-15 21-15 41 1 62H189c-14 0-21-6-22-20v-25c2-12 8-17 19-17h220z"/>
    <path fill="#FFF" d="M478 219c0 21-16 37-37 37s-37-16-37-37c0-20 16-37 34-37 25 0 40 14 40 37z"/>
    <path fill="#D8D8D8" stroke="#FFF" stroke-miterlimit="10" d="M197 373l22 8c17 4 33 3 48-4l6 1c20 17 41 16 62 2 4-3 8-3 13-1 16 7 32 8 49 2l5-2-3 30c-6 34-25 57-56 71l-14 7c-10 5-19 10-26 20-13-15-31-19-47-27a95 95 0 0 1-55-76l-4-31z"/>
    <path fill="#FFF" d="M165 310c12 12 27 15 43 12 10-2 21-6 31-10l36-11c10-3 19 0 25 9 3 4 7 3 9-1 5-9 9-11 19-8l29 11c14 5 28 10 44 10 13 0 25-3 36-10l6-4c-2 6-2 10-4 13-7 21-19 37-38 47a55 55 0 0 1-64-5c-9-7-17-16-25-25-5-5-7-5-11 0-7 10-16 18-26 25a63 63 0 0 1-61 7c-22-10-39-25-48-47l-3-12 2-1z"/>
    <path fill="#FFF" d="M308 348l21 25c-14 12-37 12-48-2l13-11 14-12z"/>
  </g>
  <circle cx="253.459" cy="277.228" r="25.683"/>
  <circle cx="353.231" cy="277.228" r="25.683"/>
  <path fill="#3C2922" fill-rule="evenodd" stroke="#000" stroke-miterlimit="10" stroke-width="10" d="M190 410l3 5 5 8c1 3 4 8 9 7 4 0 7-4 9-7l14-13 29-20 23-14 15-10c4-2 9-4 14-3 4 2 0 5-2 6l-14 8a194 194 0 0 0-34 30l-12 17c-10 13-20 27-34 37-10 7-23 12-35 10l-10-3a44 44 0 0 1-26-26c-3-9-5-19-3-29l2-7 5-7c5-4 11-5 17-6 3 0 7 0 10 2 6 3 11 9 15 15z" clip-rule="evenodd"/>
  <path fill="#FCFCFC" fill-rule="evenodd" stroke="#000" stroke-miterlimit="10" stroke-width="6" d="M178 409l-6-3c-7-1-20-3-21 7-1 4 2 7 5 8 4 2 8 1 12 0 4-2 14-5 10-11v-1z" clip-rule="evenodd"/>
</svg>
